<?xml version="1.0" encoding="utf-8"?>
<!-- Generator: Adobe Illustrator 15.0.0, SVG Export Plug-In . SVG Version: 6.00 Build 0)  -->
<!DOCTYPE svg PUBLIC "-//W3C//DTD SVG 1.1//EN" "http://www.w3.org/Graphics/SVG/1.1/DTD/svg11.dtd">
<svg version="1.1" id="Layer_1" xmlns="http://www.w3.org/2000/svg" xmlns:xlink="http://www.w3.org/1999/xlink" x="0px" y="0px"
	 width="205px" height="40px" viewBox="0 0 205 40" enable-background="new 0 0 205 40" xml:space="preserve">
<g>
	<g>
		<polygon fill="#BD8C2D" points="0.373,0 1.116,2.126 18.778,22.479 34.975,0 		"/>
		<path fill-rule="evenodd" clip-rule="evenodd" fill="#232019" d="M20.997,24.8C11.394,13.894,0.784,0.766,0.753,0.556
			C0.701,0.189,1.174,0.083,1.174,0.083L1.241,0H0.412C0.186,0,0,0.186,0,0.414v39.172C0,39.814,0.186,40,0.412,40l34.563-0.065
			C34.975,39.935,27.678,32.388,20.997,24.8"/>
	</g>
	<g>
		<polygon fill="#535251" points="64.854,32.625 52.875,20.609 52.666,20.818 52.666,32.625 51.237,32.625 51.237,7.758 
			52.666,7.758 52.666,18.799 63.774,7.758 65.794,7.758 53.883,19.635 66.839,32.625 		"/>
		<path fill="#535251" d="M86.726,32.625l-2.856-7.453H72.551l-2.891,7.453h-1.393l9.926-25.668l9.961,25.668H86.726z
			 M78.193,10.579l-5.084,13.165h10.169L78.193,10.579z"/>
		<polygon fill="#535251" points="105.359,32.625 105.359,19.669 91.671,19.669 91.671,32.625 90.278,32.625 90.278,7.758 
			91.671,7.758 91.671,18.241 105.359,18.241 105.359,7.758 106.787,7.758 106.787,32.625 		"/>
		<path fill="#535251" d="M132.804,29.386c-2.393,2.393-5.469,3.588-9.229,3.588c-3.762,0-6.826-1.185-9.194-3.553
			c-2.393-2.392-3.588-5.468-3.588-9.229s1.185-6.827,3.553-9.194c2.391-2.391,5.468-3.587,9.229-3.587
			c3.737,0,6.813,1.184,9.229,3.552c2.391,2.392,3.587,5.468,3.587,9.229S135.194,27.018,132.804,29.386 M131.793,12.007
			c-2.136-2.136-4.876-3.204-8.219-3.204c-3.298,0-6.014,1.068-8.15,3.204c-2.136,2.137-3.204,4.864-3.204,8.185
			s1.057,6.037,3.17,8.149c2.136,2.137,4.863,3.204,8.185,3.204c3.343,0,6.083-1.044,8.219-3.134c2.113-2.113,3.17-4.853,3.17-8.22
			C134.963,16.848,133.906,14.12,131.793,12.007"/>
		<polygon fill="#535251" points="144.331,20.191 144.331,32.625 142.903,32.625 142.903,20.191 135.833,7.757 137.47,7.757 
			143.6,18.52 149.799,7.757 151.436,7.757 		"/>
		<rect x="153.106" y="22.699" fill="#535251" width="7.349" height="1.429"/>
		<path fill="#535251" d="M181.456,32.625l-2.855-7.453h-11.319l-2.891,7.453h-1.393l9.926-25.668l9.96,25.668H181.456z
			 M172.924,10.579l-5.085,13.165h10.17L172.924,10.579z"/>
		<polygon fill="#535251" points="186.402,11.52 186.402,32.625 185.009,32.625 185.009,7.583 203.572,29.352 203.572,7.758 
			205,7.758 205,33.043 		"/>
	</g>
</g>
</svg>
